<?xml version="1.0" encoding="utf-8"?>
<!-- Generator: Adobe Illustrator 24.0.2, SVG Export Plug-In . SVG Version: 6.00 Build 0)  -->
<svg version="1.1" id="Layer_1" xmlns="http://www.w3.org/2000/svg" xmlns:xlink="http://www.w3.org/1999/xlink" x="0px" y="0px"
	 viewBox="0 0 512 512" style="enable-background:new 0 0 512 512;" xml:space="preserve">
<style type="text/css">
	.st0{fill:#C1E8F7;}
	.st1{fill:#F2AF81;}
	.st2{fill:#F4F4F4;}
	.st3{fill:#EAEAEA;}
	.st4{fill:#F9BC59;}
	.st5{fill:#FFB886;}
	.st6{fill:#554C44;}
	.st7{fill:#373737;}
	.st8{fill:#02160C;}
	.st9{fill:#2B2B2B;}
	.st10{fill:#F8B231;}
</style>
<circle id="XMLID_8230_" class="st0" cx="256.0887" cy="255.7101" r="248.2249"/>
<g id="XMLID_7731_">
	<path id="XMLID_7780_" class="st1" d="M256.7119,342.1613h0.0395c-0.0137-0.0395-0.0081-0.0712-0.0199-0.1107
		C256.7325,342.0848,256.7137,342.1262,256.7119,342.1613z"/>
	<path id="XMLID_7779_" class="st1" d="M248.4398,388.3162c-0.165-0.0927-0.3145-0.2034-0.4695-0.3127
		c0.127,0.3669,0.2543,0.7346,0.3784,1.0978C248.3803,388.8238,248.411,388.5551,248.4398,388.3162z"/>
	<path id="XMLID_7778_" class="st1" d="M256.2405,341.0221c0.2514,0.1931,0.3558,0.4382,0.4315,0.694
		c-0.0746-0.5208,0-0.9867,0.4382-1.3218c27.867-21.3383,39.1519-35.7645,44.2975-40.0017
		c-1.4374-4.569-2.1801-9.0074-2.5547-13.0404c-0.4902,0.4489-0.9678,0.9139-1.4673,1.3528
		c-3.7057,3.2561-7.6708,6.2327-11.9308,8.7272c-3.6326,2.1265-7.477,3.8928-11.4872,5.1818
		c-3.6436,1.1705-7.4087,1.9401-11.2162,2.3259c-4.7285,0.4784-9.584,0.3326-14.2811-0.4127
		c-3.8562-0.612-7.6413-1.6419-11.2757-3.0696c-4.0777-1.6013-7.9528-3.692-11.5953-6.1216
		c-4.3339-2.8903-8.3433-6.2478-12.0885-9.8634c-0.0805-0.0775-0.1532-0.165-0.2337-0.2444
		c-0.2927,4.4871-1.0011,9.584-2.6285,14.8632C215.1185,302.6129,225.7822,317.6986,256.2405,341.0221z"/>
	<path id="XMLID_7777_" class="st2" d="M410.2263,352.6791c3.8895,1.3842,6.6265,2.3901,8.4677,3.1136
		C416.9618,354.8392,413.9988,353.8064,410.2263,352.6791z"/>
	<path id="XMLID_7774_" class="st2" d="M400.4135,369.7061c-2.499,0.7497-8.8741-1.1067-16.8099-4.1907
		c-0.0177,0.0273-0.0351,0.0531-0.0539,0.0804l-7.8564-3.1353c0,0,0.0495-0.0749,0.0952-0.1451
		c-2.0922-0.894-4.2317-1.8357-6.3836-2.7991c-0.0129,0.0188-0.0236,0.0351-0.0373,0.0539l-6.6568-3.0342
		c0,0,0.0295-0.0439,0.0377-0.0557c-2.5772-1.1949-5.1161-2.3919-7.5696-3.5632l-0.0011,0.0007l-0.299-0.1443
		c-2.3207-1.1085-4.5609-2.1908-6.6646-3.2143l-0.0487-0.0237l0,0c-2.1697-1.0568-4.1921-2.049-6.0222-2.9511v0.0007l-0.2481-0.1225
		c-0.8859-0.4359-1.7112-0.8435-2.4964-1.231l-3.0493-1.5049c-0.8671-0.4271-1.6223-0.7966-2.2188-1.0849
		c-10.2672-4.9566-13.1526-1.2391-5.3763-18.3104c-3.0039-1.3536-5.8119-2.7179-8.3441-4.1095
		c-0.1056,18.969-40.5524,66.3804-39.3243,53.3654c0.3049-3.2291-1.2454-6.6154-3.6687-9.9483
		c-0.6378,7.8495-5.3944,13.3693-9.6578,22.9208c-0.3326,0.7464-1.0321,1.3248-1.7999,1.7581
		c1.2916,10.8161,5.4442,60.9786,9.6501,114.7261c38.2166-3.0866,73.9755-14.8045,105.3393-33.2419
		c-0.0218-33.9676,2.015-67.1589,7.2688-76.1024C393.1672,385.2758,396.6998,376.5921,400.4135,369.7061z M367.2672,450.4203
		c-1.1015,3.441-26.4319,15.6915-32.7635,15.6915c-6.332,0-32.9724-13.0762-34.0739-15.0038
		c-1.1011-1.9265-1.9896-16.3788,2.4152-16.3788c4.4051,0,56.9854,0,61.3895,0
		C367.5382,434.7292,368.3683,446.979,367.2672,450.4203z"/>
	<path id="XMLID_7773_" class="st3" d="M364.2345,434.7292c-4.4041,0-56.9844,0-61.3895,0c-4.4048,0-3.5163,14.4523-2.4152,16.3788
		c1.1015,1.9276,27.7419,15.0038,34.0739,15.0038c6.3316,0,31.662-12.2505,32.7635-15.6915
		C368.3683,446.979,367.5382,434.7292,364.2345,434.7292z"/>
	<path id="XMLID_7772_" d="M369.4048,359.5164c2.152,0.9634,4.2914,1.9051,6.3836,2.7991
		c0.9572-1.468,11.4399-17.4452,13.5727-16.9232c-1.894-0.6552-3.8714-1.3392-5.9702-2.0649
		c0.0144,0.0048,0.0705,0.0244,0.0705,0.0244C378.5698,345.1685,375.2418,351.0716,369.4048,359.5164z"/>
	<path id="XMLID_7771_" d="M355.1788,352.9172c2.4536,1.1712,4.9924,2.3683,7.5696,3.5632
		c0.3931-0.5976,10.826-16.408,12.9862-15.7978c-1.3004-0.4489-2.6296-0.9084-3.9976-1.3806
		c-1.0347-0.3569-2.0239-0.6995-3.0272-1.0472C363.7417,340.6556,361.0383,344.4424,355.1788,352.9172z"/>
	<path id="XMLID_7770_" d="M383.6036,365.5154c7.9358,3.084,14.311,4.9403,16.8099,4.1907
		c5.0374-9.3418,10.4078-15.3563,20.1044-12.768c0.3883,0.1045,0.7626,0.3127,1.1428,0.4703
		c0.4865-0.1071-0.272-0.5566-2.9666-1.6157c-1.8412-0.7235-4.5783-1.7293-8.4677-3.1136
		c-3.2106-1.1428-7.2182-2.5466-12.108-4.2482C393.2318,350.2458,389.4324,357.0776,383.6036,365.5154z"/>
	<path id="XMLID_7769_" d="M342.1432,346.5845c1.8301,0.9021,3.8525,1.8943,6.0222,2.9511
		c0.0019-0.0026,10.7685-14.4198,13.0224-13.8905c-2.3539-0.8195-4.6023-1.6042-6.7284-2.3488
		C349.7796,335.8315,348.0034,338.1105,342.1432,346.5845z"/>
	<path id="XMLID_7768_" d="M348.2141,349.5593c2.1036,1.0236,4.3438,2.1058,6.6646,3.2143L348.2141,349.5593z"/>
	<path id="XMLID_7767_" d="M341.8951,346.4627l-2.4964-1.231C340.1838,345.6192,341.0092,346.0267,341.8951,346.4627z"/>
	<path id="XMLID_7766_" d="M334.1306,342.6418c0.5965,0.2883,1.3517,0.6578,2.2188,1.0849l-0.1462-0.072
		c0,0,8.2027-13.6495,10.4196-13.1087c-11.3757-4.0094-17.8121-6.3408-17.8121-6.3408c-0.0207,0.045-0.0358,0.0812-0.0565,0.1262
		C320.9779,341.4027,323.8633,337.6852,334.1306,342.6418z"/>
	<path id="XMLID_7765_" class="st4" d="M375.7885,362.3155c-0.0458,0.0701-0.0952,0.1451-0.0952,0.1451l7.8564,3.1353
		c0.0188-0.0273,0.0362-0.0531,0.0539-0.0804c5.8289-8.4378,9.6283-15.2696,14.5147-17.0846l0,0c0,0-6.566-2.2945-8.7128-3.0442
		c-0.0118-0.0037-0.0325,0.0092-0.0443,0.0056C387.2284,344.8703,376.7456,360.8474,375.7885,362.3155z"/>
	<path id="XMLID_7764_" class="st4" d="M362.7484,356.4803c-0.0081,0.0118-0.0377,0.0557-0.0377,0.0557l6.6568,3.0342
		c0.0137-0.0188,0.0244-0.0351,0.0373-0.0539c5.837-8.4448,9.165-14.3479,14.0566-16.1647c0,0-0.0561-0.0196-0.0705-0.0244
		c-0.3721-0.1288-5.5583-1.9257-7.6276-2.6485c-0.007-0.0019-0.0207,0.0055-0.0288,0.0037
		C373.5745,340.0724,363.1415,355.8827,362.7484,356.4803z"/>
	<path id="XMLID_7763_" class="st4" d="M348.1654,349.5356L348.1654,349.5356l0.0487,0.0237l6.6646,3.2143l0.299,0.1443
		l0.0011-0.0007c5.8595-8.4747,8.563-12.2616,13.531-14.6624h0.0011c0,0-5.3198-1.8637-7.4663-2.6134
		c-0.0155-0.0056-0.0406,0.007-0.0568,0.0037C358.9339,335.1158,348.1673,349.5331,348.1654,349.5356z"/>
	<path id="XMLID_7762_" class="st4" d="M336.2032,343.6547l0.1462,0.072l3.0493,1.5049l2.4964,1.231l0.2481,0.1225v-0.0007
		c5.8602-8.474,7.6364-10.753,12.3162-13.2881c0,0,0.0011,0,0.0019,0c0,0-5.6388-2.004-7.7845-2.754
		c-0.0151-0.0052-0.0377,0.0074-0.0539,0.0037C344.4059,330.0052,336.2032,343.6547,336.2032,343.6547z"/>
	<path id="XMLID_7761_" class="st5" d="M225.5994,295.336c3.6425,2.4296,7.5176,4.5203,11.5953,6.1216
		c3.6344,1.4278,7.4194,2.4576,11.2757,3.0696c4.6971,0.7453,9.5526,0.8911,14.2811,0.4127
		c3.8075-0.3857,7.5726-1.1554,11.2162-2.3259c4.0102-1.289,7.8546-3.0552,11.4872-5.1818
		c4.2601-2.4945,8.2252-5.4712,11.9308-8.7272c0.4994-0.4389,0.9771-0.904,1.4673-1.3528c0.6811-0.6242,1.3732-1.2381,2.0383-1.8796
		c15.9329-15.3844,15.7952-54.255,19.6415-51.508c8.7911,5.9064,14.4213-11.675,15.521-22.1142
		c0.6984-6.6335-0.9767-10.7988-3.4137-11.8459c-0.7615,2.489-1.6175,4.3309-2.5422,5.1293
		c-4.1689,3.5993-6.0695,12.8943-6.2995,14.2748h-5.3663c-4.1375-4.5291-2.4957-19.5234-11.9058-32.0695
		c-3.6075-4.8104-4.8724-10.1923-5.6402-14.9219c-20.2243,4.1844-39.909,4.906-42.4892,4.9846v0.0089
		c0,0-0.0827-0.0026-0.1539-0.0044c-0.0713,0.0018-0.1543,0.0044-0.1543,0.0044v-0.0089c-0.729-0.0225-2.8585-0.1-5.9433-0.2876
		c-5.909,4.187-12.4218,7.9321-10.6825,3.8743c2.3521-5.4893-8.4315,3.0349-17.8416,9.3082c-9.4101,6.274-9.0842,4.713-5.947-0.7759
		c3.1361-5.4892-14.6594,5.6594-17.0118,10.3643c-2.3528,4.7052-3.1368,18.8206-3.1368,18.8206h-6.7528
		c0-10.1059-7.3452-14.3073-7.3452-14.3073s-0.5345-1.6529-1.1808-4.4941c-2.6891,0.6858-4.641,4.8905-3.8983,11.946
		c1.0993,10.4392,6.7299,28.0206,15.521,22.1142c3.8264-2.7334,3.7164,35.7235,19.4078,51.2637
		c0.0805,0.0794,0.1532,0.1668,0.2337,0.2444C217.2561,289.0882,221.2655,292.4457,225.5994,295.336z"/>
	<path id="XMLID_7760_" class="st6" d="M300.8861,172.4171c0.7678,4.7296,2.0328,10.1114,5.6402,14.9219
		c9.4101,12.5462,7.7682,27.5404,11.9058,32.0695h5.3663c0.2299-1.3805,2.1306-10.6754,6.2995-14.2748
		c0.9247-0.7984,1.7807-2.6404,2.5422-5.1293c2.5772-8.426,3.9419-24.989,2.3303-39.9016
		C325.9766,165.9593,313.3304,169.8436,300.8861,172.4171z"/>
	<path id="XMLID_7759_" class="st6" d="M190.7729,218.7057h6.7528c0,0,0.784-14.1153,3.1368-18.8206
		c2.3524-4.7049,20.1479-15.8535,17.0118-10.3643c-3.1372,5.4889-3.4631,7.0499,5.947,0.7759
		c9.4101-6.2733,20.1937-14.7975,17.8416-9.3082c-1.7393,4.0578,4.7735,0.3126,10.6825-3.8743
		c-14.6125-0.8903-51.4268-4.3553-70.8501-17.1621c-1.131,6.6911-1.6437,14.1297-1.3085,22.4158
		c0.3119,7.673,1.3905,13.7126,2.2601,17.5364c0.6463,2.8412,1.1808,4.4941,1.1808,4.4941S190.7729,208.5998,190.7729,218.7057z"/>
	<path id="XMLID_7758_" class="st2" d="M94.6898,355.7927c1.8412-0.7235,4.5779-1.7293,8.4685-3.1136
		C99.385,353.8064,96.4221,354.8392,94.6898,355.7927z"/>
	<path id="XMLID_7754_" class="st2" d="M248.3486,389.1013c-0.124-0.3632-0.2514-0.7309-0.3784-1.0978
		c-0.5622-0.3972-1.0671-0.8586-1.3285-1.4436c-4.3848-9.8257-9.2783-15.3947-9.6866-23.6118
		c-2.9947,3.7544-5.0349,7.6102-4.6908,11.2664c1.2436,13.1626-40.1261-35.4688-39.297-53.9889
		c-2.5303,1.3905-5.3368,2.7533-8.3378,4.1058c7.7775,17.0713,4.8909,13.3538-5.3756,18.3104
		c-0.5972,0.2883-1.3517,0.6578-2.2195,1.0849l-3.0497,1.5049c-0.784,0.3876-1.6101,0.7951-2.496,1.231l-0.2469,0.1225
		l-0.0011-0.0007c-1.8301,0.9021-3.8525,1.8943-6.0215,2.9511l0,0l-0.0687,0.0325c-2.0977,1.0221-4.3317,2.0999-6.6442,3.2047
		l-0.2994,0.1451l-0.0007-0.0007c-2.4547,1.1712-4.9935,2.3683-7.57,3.5632c0.0074,0.0118,0.0369,0.0557,0.0369,0.0557
		l-6.6568,3.0342c-0.0129-0.0188-0.0244-0.0351-0.0373-0.0539c-2.1509,0.9634-4.2903,1.9043-6.3836,2.798
		c0.0465,0.0705,0.0952,0.1461,0.0952,0.1461l-7.8564,3.1353c-0.0188-0.0273-0.0351-0.0531-0.0539-0.0804
		c-7.7664,3.0183-14.0496,4.8684-16.6568,4.2431c3.7031,6.8775,7.2319,15.5379,12.1678,23.9414
		c5.3361,9.083,7.3563,43.175,7.2688,77.6919c31.6975,18.0886,67.7458,29.386,106.2101,31.9289
		C242.8903,450.6547,246.9618,401.3818,248.3486,389.1013z M148.9736,418.6882h61.5633v11.1808h-61.5633V418.6882z
		 M146.1166,450.4203c-1.1011-3.4413-0.2702-15.6911,3.0327-15.6911c4.4048,0,56.9843,0,61.3895,0
		c4.4048,0,3.5163,14.4523,2.4152,16.3788c-1.1015,1.9276-27.7419,15.0038-34.0739,15.0038
		C172.5492,466.1118,147.218,453.8613,146.1166,450.4203z"/>
	<path id="XMLID_7753_" d="M265.9595,388.3181c0.7678-0.4333,1.4673-1.0118,1.7999-1.7581
		c4.2634-9.5515,9.0199-15.0714,9.6578-22.9208c-6.4612-8.8856-19.2185-17.3721-20.6658-21.4779h-0.0395
		c-0.1462,3.63-12.6706,11.9039-19.7567,20.7869c0.4082,8.2171,5.3017,13.786,9.6866,23.6118
		c0.2613,0.5851,0.7663,1.0465,1.3285,1.4436c0.155,0.1093,0.3045,0.22,0.4695,0.3127c-0.0288,0.2388-0.0594,0.5075-0.0912,0.7851
		c-1.3868,12.2804-5.4583,61.5534-9.5784,114.2193c5.4937,0.3632,11.0169,0.6139,16.6025,0.6139
		c6.8199,0,13.5554-0.3507,20.2369-0.8903C271.4037,449.2967,267.2511,399.1342,265.9595,388.3181z"/>
	<path id="XMLID_7752_" class="st3" d="M212.954,451.108c1.1011-1.9265,1.9896-16.3788-2.4152-16.3788
		c-4.4051,0-56.9847,0-61.3895,0c-3.3029,0-4.1338,12.2498-3.0327,15.6911c1.1015,3.441,26.4326,15.6915,32.7635,15.6915
		C185.212,466.1118,211.8525,453.0356,212.954,451.108z"/>
	<path id="XMLID_7751_" class="st3" d="M232.2643,374.2146c-0.344-3.6562,1.6961-7.5121,4.6908-11.2664
		c7.0861-8.883,19.6105-17.1569,19.7567-20.7869c0.0018-0.0351,0.0207-0.0764,0.0196-0.1107
		c0.0118,0.0395,0.0063,0.0713,0.0199,0.1107c1.4473,4.1058,14.2047,12.5923,20.6658,21.4779
		c2.4233,3.3328,3.9736,6.7192,3.6687,9.9483c-1.2281,13.015,39.2188-34.3965,39.3243-53.3654
		c0.0026-0.5101-0.0063-1.0117-0.0642-1.4798c-0.3252-2.6655-8.1034-6.7074-15.284-18.8589
		c-0.7397-1.2517-1.815-1.0066-3.6543,0.5094c-5.1456,4.2372-16.4305,18.6633-44.2975,40.0017
		c-0.4382,0.3352-0.5127,0.801-0.4382,1.3218c-0.0757-0.2558-0.1801-0.5009-0.4315-0.694
		c-30.4583-23.3235-41.122-38.4092-45.5917-40.9307c-1.0815-0.6102-1.8124-0.5064-2.3594,0.42
		c-7.1806,12.1505-14.9595,16.1924-15.2851,18.8582c-0.0332,0.2702-0.0244,0.5714-0.0369,0.856
		C192.1383,338.7458,233.5079,387.3772,232.2643,374.2146z"/>
	<rect id="XMLID_7750_" x="148.9736" y="418.6882" class="st3" width="61.5633" height="11.1808"/>
	<path id="XMLID_7749_" class="st7" d="M245.2479,130.8647c-4.6089-4.7008-8.866-11.5658-9.4994-20.3805
		c-0.904-12.5742,3.2981-6.0134,9.1631-8.1477c5.8639-2.1328,8.2459-7.9528,12.0947-7.9528c3.8488,0,6.2308,5.82,12.0947,7.9528
		c5.865,2.1343,10.0671-4.4265,9.1631,8.1477c-0.6279,8.7398-4.8193,15.5582-9.3831,20.255
		c36.5341,1.7692,75.8673,11.719,77.5398,15.889c11.5621-13.7307,15.6553-11.8471,3.2029-28.2343
		c-12.8699-16.9365-39.9441-40.5908-91.2269-40.7838v-0.017c-0.1056,0-0.2019,0.0081-0.3064,0.0081
		c-0.1056,0-0.2019-0.0081-0.3071-0.0081v0.017c-51.2829,0.1931-78.3563,23.8473-91.2269,40.7838
		c-12.5491,16.5143-8.2946,14.4741,3.4757,28.5595C169.6169,143.0872,208.3993,132.9913,245.2479,130.8647z"/>
	<path id="XMLID_7748_" class="st8" d="M171.3193,149.8562l-1.2879-2.7603C170.3821,148.0475,170.8236,148.9629,171.3193,149.8562z"
		/>
	<path id="XMLID_7747_" class="st8" d="M252.1454,177.1142c3.0848,0.1875,5.2142,0.265,5.9433,0.2876v0.0089
		c0,0,0.083-0.0026,0.1543-0.0044c0.0712,0.0018,0.1539,0.0044,0.1539,0.0044v-0.0089c2.5802-0.0786,22.2649-0.8003,42.4892-4.9846
		c12.4443-2.5735,25.0905-6.4578,34.0842-12.3144c5.4667-3.5591,9.5832-7.845,11.4839-13.0068
		c0.0531-0.1462,0.0325-0.3038-0.0332-0.4677c-1.6725-4.17-41.0057-14.1198-77.5398-15.889
		c-4.7536,4.8935-9.911,7.4836-11.8747,7.4836c-1.9475,0-7.0374-2.5433-11.7585-7.3581
		c-36.8486,2.1265-75.6311,12.2225-75.2158,16.0887c0.0048,0.0458-0.0177,0.0975-0.0007,0.1425
		c42.0499-5.8857,87.5833-5.1836,88.0373-5.1766c0.4551-0.007,45.9874-0.7091,88.0384,5.1766l-1.3731,2.9423
		c-5.3468,5.0636-78.1382,8.1396-86.6435,8.1477v0.0007c-0.0063,0-0.0151-0.0007-0.0218-0.0007
		c-0.0052,0-0.0151,0.0007-0.0207,0.0007v-0.0007c-8.4862-0.0081-80.9642-3.0704-86.5944-8.1145
		c2.1634,3.7905,5.5708,7.0654,9.8416,9.8807C200.7186,172.7589,237.5329,176.2239,252.1454,177.1142z"/>
	<path id="XMLID_7746_" class="st9" d="M258.0481,158.1859v0.0007c0.0056,0,0.0155-0.0007,0.0207-0.0007
		c0.0066,0,0.0155,0.0007,0.0218,0.0007v-0.0007c8.5054-0.0081,81.2968-3.084,86.6435-8.1477l1.3731-2.9423
		c-42.0511-5.8857-87.5833-5.1836-88.0384-5.1766c-0.454-0.007-45.9874-0.7091-88.0373,5.1766l1.2879,2.7603l0.0845,0.182
		c0.0125,0.0118,0.0369,0.0225,0.0498,0.0332C177.0839,155.1155,249.5619,158.1777,258.0481,158.1859z"/>
	<path id="XMLID_7745_" class="st10" d="M269.1011,102.3366c-5.8639-2.1328-8.2459-7.9528-12.0947-7.9528
		c-3.8489,0-6.2308,5.82-12.0947,7.9528c-5.865,2.1343-10.0671-4.4265-9.1631,8.1477c0.6334,8.8147,4.8905,15.6797,9.4994,20.3805
		c4.7211,4.8149,9.811,7.3581,11.7585,7.3581c1.9637,0,7.1212-2.5901,11.8747-7.4836c4.5639-4.6967,8.7553-11.5152,9.3831-20.255
		C279.1683,97.91,274.9662,104.4708,269.1011,102.3366z"/>
	<path id="XMLID_7744_" d="M113.1235,369.7585c2.6071,0.6253,8.8904-1.2248,16.6568-4.2431
		c-5.8288-8.4378-9.6283-15.2696-14.5147-17.0846c-4.8898,1.7017-8.8974,3.1054-12.1073,4.2482
		c-3.8906,1.3842-6.6273,2.3901-8.4685,3.1136c-2.8378,1.1147-3.52,1.5529-2.8711,1.6275c0.3902-0.1631,0.7741-0.3758,1.1734-0.4821
		C102.7049,354.3453,108.0779,360.3879,113.1235,369.7585z"/>
	<path id="XMLID_7743_" d="M150.6361,356.4803c2.5765-1.1949,5.1153-2.3919,7.57-3.5632
		c-5.8606-8.4747-8.5641-12.2616-13.5321-14.6624c-1.0033,0.3477-1.9925,0.6902-3.0272,1.0472
		c-1.368,0.4721-2.6972,0.9317-3.9976,1.3806C139.8101,340.0724,150.2423,355.8827,150.6361,356.4803z"/>
	<path id="XMLID_7742_" d="M137.5953,362.3144c2.0933-0.8936,4.2327-1.8346,6.3836-2.798
		c-5.8359-8.4448-9.165-14.3479-14.0555-16.1647c0,0,0.0557-0.0196,0.0694-0.0244c-2.0988,0.7257-4.0762,1.4097-5.9706,2.0649
		C126.1554,344.8695,136.6382,360.8474,137.5953,362.3144z"/>
	<path id="XMLID_7741_" d="M177.1806,343.6547l-0.1462,0.072c0.8678-0.4271,1.6223-0.7966,2.2195-1.0849
		c10.2665-4.9566,13.153-1.2391,5.3756-18.3104c-0.0207-0.045-0.0358-0.0812-0.0565-0.1262c0,0-6.4364,2.3314-17.8121,6.3408
		C168.9779,330.0052,177.1806,343.6547,177.1806,343.6547z"/>
	<path id="XMLID_7740_" d="M165.2191,349.5356c2.169-1.0568,4.1914-2.049,6.0215-2.9511
		c-5.8602-8.474-7.6357-10.753-12.3155-13.2881c-2.1269,0.7445-4.3752,1.5293-6.7291,2.3488
		C154.4492,335.1151,165.2166,349.5323,165.2191,349.5356z"/>
	<path id="XMLID_7739_" d="M158.5062,352.7729c2.3126-1.1048,4.5465-2.1826,6.6442-3.2047L158.5062,352.7729z"/>
	<path id="XMLID_7738_" d="M173.9847,345.2316l-2.496,1.231C172.3746,346.0267,173.2007,345.6192,173.9847,345.2316z"/>
	<path id="XMLID_7737_" class="st4" d="M129.7802,365.5154c0.0188,0.0273,0.0351,0.0531,0.0539,0.0804l7.8564-3.1353
		c0,0-0.0487-0.0757-0.0952-0.1461c-0.9572-1.4669-11.4399-17.4448-13.5731-16.9221c-0.0114,0.0037-0.0314-0.0092-0.0432-0.0056
		c-2.1465,0.7497-8.7136,3.0442-8.7136,3.0442l0,0C120.152,350.2458,123.9514,357.0776,129.7802,365.5154z"/>
	<path id="XMLID_7736_" class="st4" d="M143.979,359.5164c0.0129,0.0188,0.0244,0.0351,0.0373,0.0539l6.6568-3.0342
		c0,0-0.0295-0.0439-0.0369-0.0557c-0.3939-0.5976-10.8261-16.408-12.9869-15.7978c-0.0081,0.0018-0.0218-0.0056-0.0288-0.0037
		c-2.0693,0.7227-7.2544,2.5196-7.6276,2.6485c-0.0137,0.0048-0.0694,0.0244-0.0694,0.0244
		C134.814,345.1685,138.1431,351.0716,143.979,359.5164z"/>
	<path id="XMLID_7735_" class="st4" d="M158.2061,352.9172l0.0007,0.0007l0.2994-0.1451l6.6442-3.2047l0.0687-0.0325l0,0
		c-0.0026-0.0033-10.77-14.4206-13.0231-13.8905c-0.0163,0.0033-0.0414-0.0092-0.0569-0.0037
		c-2.1465,0.7497-7.4652,2.6134-7.4652,2.6134l0,0C149.6421,340.6556,152.3456,344.4424,158.2061,352.9172z"/>
	<path id="XMLID_7734_" class="st4" d="M171.2407,346.5845l0.0011,0.0007l0.2469-0.1225l2.496-1.231l3.0497-1.5049l0.1462-0.072
		c0,0-8.2027-13.6495-10.4196-13.1087c-0.0162,0.0037-0.0376-0.0089-0.0531-0.0037c-2.1465,0.7501-7.7845,2.754-7.7845,2.754
		c0.0011,0,0.0011,0,0.0011,0C163.6049,335.8315,165.3804,338.1105,171.2407,346.5845z"/>
	<path id="XMLID_7733_" class="st3" d="M125.2913,393.6999c-4.9359-8.4035-8.4648-17.0639-12.1678-23.9414
		c-5.0456-9.3706-10.4185-15.4132-20.1313-12.8204c-0.3994,0.1063-0.7833,0.3189-1.1734,0.4821
		c-10.6393,4.4302-18.4588,29.3794-26.2496,58.1914c18.8128,22.3077,41.4878,41.2264,66.991,55.7803
		C132.6476,436.8749,130.6274,402.783,125.2913,393.6999z"/>
	<path id="XMLID_7732_" class="st3" d="M421.6607,357.4083c-0.3802-0.1576-0.7545-0.3658-1.1428-0.4703
		c-9.6965-2.5883-15.0669,3.4262-20.1044,12.768c-3.7137,6.886-7.2463,15.5697-12.1959,23.9938
		c-5.2538,8.9435-7.2906,42.1348-7.2688,76.1024c25.316-14.8813,47.7843-34.0809,66.3236-56.6529
		C439.6943,385.3577,432.0117,361.6783,421.6607,357.4083z"/>
</g>
</svg>
